<svg xmlns="http://www.w3.org/2000/svg" version="1.1" xmlns:xlink="http://www.w3.org/1999/xlink" width="205" height="240"><svg xmlns="http://www.w3.org/2000/svg" xml:space="preserve" id="SvgjsSvg1647" width="205" height="240" x="0" y="0" version="1.1">
  <g id="SvgjsG1646">
    <path id="SvgjsPath1645" d="M181.091 151.975c1.085-.521 1.832-1.781 3.201-2.336 1.235-.504 2.896-.728 4.329-1.127 1.48-.408 2.911-.772 4.24-1.213-2.729 7.25-.666 21.646-7.617 24.844-2.018.928-4.059.135-5.885-.779-.123-.061-.338-.122-.521-.26-.288-.221-.014-.486-.433-.348-.243.082-1.129 3.41-1.299 3.896-3.06 8.688-8.034 16.52-13.416 22.849-5.605 6.594-11.627 12.229-19.561 16.705-.859.483-2.938 1.429-3.029 2.077-.062.419 1.205 2.643 1.385 3.029 1.18 2.547 3.609 6.396 1.904 10.213-1.664 3.725-7.018 4.938-11.252 6.231-4.516 1.379-9.256 2.433-14.369 3.203-5.02.756-10.273 1.037-16.271 1.039-4.148 0-8.284.026-12.29-.433-7.689-.883-14.382-2.446-21.12-4.676-3.136-1.039-6.685-2.301-8.136-4.761-2.136-3.62.092-7.683 1.472-10.646.201-.433.381-.985.693-1.646.181-.385.804-1.155.778-1.471-.063-.789-2.092-1.64-3.029-2.165-7.705-4.319-14.177-10.233-19.562-16.705-6.428-7.725-11.444-16.041-14.626-26.745-1.822.899-4.131 2.545-6.751 1.472-7.103-2.906-5.035-17.563-7.79-24.929 1.339.442 2.76.804 4.241 1.213 1.432.397 3.075.627 4.328 1.126 1.304.521 2.137 1.68 3.116 2.424 1.155-4.242 3.813-5.854 5.02-9.867.107-.354.393-1.961.52-1.99 1.232-.27 2.315 2.051 2.684 2.771 1.27 2.487 1.935 4.854 2.595 8.135.145.72.571 3.828 1.298 4.068.594.195 2.05-.842 2.684-1.3 1.241-.896 2.481-2.479 4.761-1.644 1.968.722 1.706 3.778 2.164 6.145 1.986 10.266 6.518 18.707 12.117 25.535 4.961 6.048 10.791 10.523 18.35 13.934 2.294 1.035 5.592 1.957 7.011 3.723 2.36 2.935-.117 5.93-1.731 8.224-.414.588-.937 1.313-1.471 2.336-.396.758-1.125 2.326-.952 2.771.134.348 1.669.694 2.51.951 12.159 3.729 29.949 3.664 42.151 0 .678-.203 2.454-.529 2.597-.779.305-.527-.697-2.368-1.039-3.029-.539-1.044-1.072-1.835-1.558-2.51-1.091-1.518-2.74-3.141-2.511-5.625.322-3.484 4.098-4.291 6.838-5.452 15.177-6.437 25.934-19.173 30.641-36.267.52-1.89 1.091-3.982 1.385-6.318.229-1.807.301-3.271 1.904-3.723 2.152-.605 3.217.713 4.501 1.646.716.522 2.044 1.544 2.683 1.386.854-.213 1.143-2.912 1.385-4.068.785-3.729 1.523-7.071 3.637-9.867.255-.338 1.137-1.321 1.645-1.038.162.092.295 1.229.434 1.731 1.072 3.903 4.09 6.099 5.017 10.04z"></path>
    <path id="SvgjsPath1644" fill="#FFC627" d="M38.711 162.621c-4.238 2.145-8.845 3.592-12.81 5.971-.54.325-.92.893-1.471 1.213-1.31.764-3.461.848-4.588 0-1.038-.779-1.785-2.352-2.337-3.809-.538-1.422-1.169-3.115-1.383-4.76-.476-3.633-.495-7.67-1.126-10.821 3.395.63 6.41 1.783 8.136 4.155.366.504.902 1.52 1.385 2.338.045.076.136.781.606.605.308-.115-.085-1.556-.086-1.646-.027-1.527.565-3.043 1.125-4.501.493-1.282 1.052-2.854 1.731-3.809.903-1.267 1.967-1.949 2.337-3.979 3.319 5.856 2.14 16.208 8.481 19.043zm144.629-9.781c-1.313 1.046-1.917 2.753-2.941 4.242-.887 1.285-.437-.5-.434-1.299.006-1.496-.523-2.994-1.038-4.327-.499-1.292-1.046-2.713-1.731-3.722-.901-1.327-2.193-2.391-2.424-4.154-3.281 5.92-2.207 16.197-8.48 19.127 4.154 1.947 9.08 3.598 12.809 5.885.541.333.933.9 1.474 1.213 1.114.646 3.204.762 4.153.258 1.242-.653 2.11-2.369 2.685-3.807.632-1.591 1.237-3.242 1.471-5.02.486-3.697.478-7.364 1.125-10.821-2.335.706-4.835.965-6.669 2.425zM69.957 206.59c3.338-.313 7.51 1.139 10.472-.26.747-.354 1.771-1.385 1.732-2.251-.093-2.079-5.07-3.757-6.665-4.501-7.805-3.639-13.973-8.174-19.214-14.281-5.807-6.764-10.592-16.035-12.551-26.57-.312-1.674-.158-3.901-1.385-4.242-1.232-.344-.146 2.82 0 3.289.411 1.312.816 1.916.779 3.115-.086 2.816-2.895 3.287-5.02 4.068-2.268.834-4.671 1.723-6.752 2.77-.829.418-2.753 1.4-2.855 1.904-.134.654.841 2.784 1.211 3.809 6.636 18.338 18.748 31.8 35.054 40.246-.093-4.268 1.405-6.745 5.194-7.096zm103.689-38.863c-2.361-1.187-4.446-1.889-6.836-2.77-2.494-.919-5.438-1.557-4.85-4.934.104-.59 2.227-5.385.693-5.539-.954-.096-1.079 1.873-1.213 2.771-.113.772-.221 1.539-.346 2.163-3.762 18.698-15.172 32.465-30.294 39.555-1.1.517-2.297.91-3.549 1.471-1.09.492-4.429 2.244-4.414 3.723.009.775.981 1.803 1.729 2.165 2.996 1.446 7.236-.084 10.561.26 3.594.371 5.307 2.938 5.105 7.097 16.289-8.345 28.531-22.115 35.055-40.332.195-.543 1.424-3.34 1.299-3.81-.113-.443-2.266-1.483-2.94-1.82zm-35.573 43.796c-3.384 3.672-9.071 5.463-15.319 6.752-6.175 1.27-13.227 2.033-20.08 2.162-6.827.127-13.974-.879-20.168-2.078-6.251-1.209-12.13-3.137-15.492-6.836-.182.858-.26 3.146-.693 4.498-.401 1.258-1.255 2.084-1.818 3.203-1.111 2.213-2.369 5.088-2.25 7.791.137 3.115 2.415 3.911 5.021 4.935 1.522.597 3.122 1.032 4.501 1.472 9.254 2.941 19.077 4.846 30.899 4.846 8.043 0 14.563-.922 21.378-2.424 4.712-1.037 9.58-2.271 13.849-3.98 2.733-1.094 4.802-1.893 4.848-5.107.083-5.941-5.039-9.191-4.676-15.234z"></path>
    <g id="SvgjsG1643">
      <path id="SvgjsPath1642" d="M171.848 173.95c0-.722-.602-1.2-1.205-1.323-.599.363.123.842 0 1.201-.115.359-.358.602-.719.602l-3.724-2.762-.357.24c-.122 1.803-2.883 2.882-1.442 4.924.601 1.201 1.801 1.922 2.882 2.402.843.242 2.043.117 2.643-.842.96-.838-.841-2.521.718-2.881.602-.24 1.438-.721 1.204-1.561zm-3.244 3.724c-1.321.119-2.277-.961-3.002-2.046-.24-.356-.119-.838.241-1.198 1.318-.719 2.644.842 3.363 1.922.358.601-.128 1.082-.602 1.322z"></path>
      <path id="SvgjsPath1641" d="M163.318 187.758c.722-1.199 1.443-2.882.839-4.439-.359-.725-.96-1.563-1.798-1.924-1.32-.358-2.523.123-3.482.963-1.201.357-1.563-1.321-2.281-2.041-.238-.123-.72-.243-.845.115-.718.963.845 1.443 1.325 2.045 1.681 1.561-1.081 3.002-.36 4.922.24 1.443 1.442 2.643 2.761 2.882 1.082-.119 1.922-.479 2.645-1.32 1.199-.239 1.199 1.802 2.398 1.802 1.201-1.2-1.202-1.921-1.202-3.005zm-2.519.842c-1.082.119-2.162-.361-2.525-1.32-.478-.721-.478-2.043.127-2.643h.356l2.884 3.242c.116.48-.48.6-.842.721zm1.801-1.801h-.358l-2.884-3.244c-.121-.598.603-.721.959-.84 1.203-.238 2.162.84 2.645 1.684.118.72.118 1.796-.362 2.4z"></path>
      <path id="SvgjsPath1640" d="M157.557 195.324c.48.117 1.2-.719 1.439.117.12.604-.239 1.322-.838 1.445-1.922-.123-3.245-1.445-5.047-1.924-.719.239-.241.842-.116 1.202l1.798 3.841c.12.602-.479.84-.96 1.079-.601-.116-.838-.596-.963-1.198l-1.197-5.281c-1.565-.724-3.483-2.043-5.287-.965l-.479-.117c0-.123-.118-.123-.118-.239.359-.843 1.439-1.083 2.279-1.442 3.364.48 6.246 2.403 9.489 3.482"></path>
      <path id="SvgjsPath1639" d="M149.032 203.852c-3.005-1.922-5.769-4.205-8.771-6.127l-.238.481 3.002 9.964c-.119.602-.963.964-.719 1.566 1.198-.604 2.521-1.444 3.481-2.404-.36-.363-.84 0-1.323 0-.838-.363-1.201-1.323-1.316-2.163.356-.842 1.199-1.317 2.037-1.562l1.681 1.201c.963.721-.597 1.199-.117 1.92 1.319-.959 2.522-1.797 3.961-2.641 0-1.321-.961.123-1.678-.235zm-5.884-.123c-.726-.121-.601-.963-.963-1.559l.362-.363c.601 0 1.077.721 1.56 1.084.122.597-.599.597-.959.838z"></path>
    </g>
    <g id="SvgjsG1638">
      <path id="SvgjsPath1637" d="M137.143 224.145c.117 1.681.117 3.481-.844 4.924-.838.599-1.92 1.8-3.119.957-1.438-1.198-1.201-3.117-1.32-4.801-.239-.843-1.559-.24-1.08-1.32.356-.359.962-.721 1.683-.48 1.8 1.079.599 3.361 1.32 5.041.239.48.84.362 1.317.123 1.082-1.202 1.322-2.882.724-4.324-.48-.48-.724-1.318 0-1.8.957-.123 1.08.958 1.319 1.68"></path>
      <path id="SvgjsPath1636" d="M125.016 226.664c-.601-.961-1.682-1.559-2.885-1.322-1.561.242-2.641 1.565-3 2.883-.24 1.202-.119 2.402.721 3.244.479.6 1.442.84 2.4.84 1.082-.121 2.042-.721 2.643-1.682.599-1.2.724-2.762.121-3.963zm-2.764 4.803c-.838.123-1.438-.6-1.563-1.199 0-1.44.123-3.359 1.685-3.965.599-.119 1.317.361 1.442 1.082.116 1.56-.125 3.361-1.564 4.082z"></path>
      <path id="SvgjsPath1635" d="M114.207 233.029c.357.48 1.32.48.838 1.32-.357.602-1.197.721-1.682.237-.957-1.56-1.437-3.362-2.278-4.922-1.317 1.201-1.44 3.362-2.161 4.922-.242.481-.84.363-1.199.242-.843-.601-.361-1.563.119-2.163l2.641-4.441c-.84-1.44-1.08-3.724-3.121-4.08-.121-.242-.48-.363-.241-.721.724-.363 1.687.115 2.282.356l1.682 1.801 3.12 7.449"></path>
      <path id="SvgjsPath1634" d="M102.08 228.225c-.361 1.563-1.562 3.244-1.2 4.805.839.722 1.562-1.44 2.278-.24-.239.962-1.319 1.441-2.038 1.8-.841.123-1.683-.118-1.921-.96 0-2.158.958-3.962 1.44-5.885.361-.36 1.441-.239 1.441.48"></path>
      <path id="SvgjsPath1633" d="M92.833 222.223c-1.201 2.762-2.761 5.521-3.361 8.523.358.479.96 0 1.319-.119 1.562-1.2 2.523-2.643 3.482-4.203.242.24.602 0 .721.36-.479 1.68-1.8 3.124-2.88 4.563-.962.84-2.042 1.32-3.242 1.439-1.2.723 0 3.361-2.042 2.882-1.203-1.082 1.201-2.159 0-3.244-.842-.478-1.203-1.2-1.44-2.039-.242-1.319 2.038-2.761.119-3.603-.238-.36-.36-.84 0-1.079.24-.361.841-.242 1.2-.123 1.922 1.44-1.082 3.965 1.082 5.405.961-.36.841-1.321 1.2-2.043 1.082-2.399.961-5.404 2.521-7.563.602-.119 1.321.242 1.321.844"></path>
      <path id="SvgjsPath1632" d="M80.705 221.743c-.241 1.2-.241 2.88-1.082 3.601.242-1.199-.24-2.283-1.198-3.24-.842-.6-1.802-.723-2.762-.963-1.322.84-1.081 2.642-1.562 3.844.24.841 1.082.359 1.44.24.841-.24.841-1.563 1.801-1.442-.119 1.803-.84 3.481-1.199 5.286h-.602c0-.961.122-2.403-1.2-2.885-1.2 0-.84 1.683-1.321 2.405-.119.479-.361 1.198 0 1.56 1.202.479 2.643 1.076 3.844.238.959-.479 1.318-1.682 2.281-1.923.122 1.323-.601 2.522-.962 3.726l-.599.236-8.646-2.277c-.36-.123-.241-.602-.241-.842.601-.121 1.201.12 1.683-.121l.721-1.319 1.8-6.843c-.121-.963-2.041-.604-1.321-1.924 3.003.841 6.122 1.56 9.125 2.643"></path>
    </g>
    <g id="SvgjsG1631">
      <path id="SvgjsPath1630" d="M64.494 203.247c.241-.237.361-.597 0-.958-1.56 0-1.56-2.159-3.121-2.159-1.802-.123-2.882.841-3.962 2.159-.48.721-.721 1.682-.361 2.52.481 1.082 1.922 1.441 3.002 1.082.36.721.121 1.684.961 2.041.721.36 1.8.121 2.162-.721-.24-.838-.841-.119-1.32-.242-.242-.236-.481-.596-.363-.838l3.002-2.884zm-5.042 1.924c-.48 0-.962-.36-.962-.842 0-1.438 1.685-2.282 2.765-2.763.479.123 1.079.363.958.959-.48 1.082-1.44 2.409-2.761 2.646z"></path>
      <path id="SvgjsPath1629" d="M58.25 191.84c-.839-.117-1.319.725-1.919 1.203-2.041 1.32-3.003-1.801-5.285-1.203-1.201.123-2.401.963-2.76 2.165-.361 1.198.359 2.278.839 3.241-.599.719-1.44.719-2.04 1.199-.24.242-.24.72 0 .961 1.082.359 1.802-.961 2.639-1.2l2.284 1.44c1.201.359 2.882.479 3.964-.601 1.44-1.203.599-3.36.119-4.804.599-1.198 3.362-.72 2.159-2.401zm-8.645 4.085c-.12-1.081.481-2.042 1.439-2.401.962-.36 2.163-.36 2.885.481-.842 1.198-2.404 1.92-3.726 2.64-.359 0-.479-.479-.598-.72zm3.843 2.639c-.961 0-1.922-.239-2.403-.963.961-.959 2.403-1.797 3.603-2.518.721-.121.96.721.96 1.32-.119 1.199-1.2 1.681-2.16 2.161z"></path>
      <path id="SvgjsPath1628" d="m49.125 181.636-.361 2.044-4.201 7.441c-.241.48.359 1.559-.721 1.441-.361 0-.723-.361-.961-.722 0-2.041 2.041-3.362 2.401-5.284-1.919-.117-3.723 1.2-5.643 1.082-.361-.478-.599-1.082-.12-1.562 2.162-.479 4.442-.241 6.605-.724.96-1.561 2.401-3.24 1.561-5.039l.242-.482c.837.123.837 1.204 1.198 1.805"></path>
      <path id="SvgjsPath1627" d="m33.995 173.828-1.322-1.078c-.241 1.438.959 2.764 1.441 4.084.6-.361 0-1.32.721-1.803.602-.122 1.202-.602 1.803-.359.958.237.838 1.318 1.318 2.041-.118.842-1.081 1.08-1.682 1.801-.72.479-1.079-.6-1.56-.84l-.241.119c.603 1.559 1.322 3.119 2.042 4.684.841-.36-.241-1.201.36-1.802l7.566-6.604.121-.721c-3.481-.121-6.966.6-10.567.478zm4.682 2.404c-.359-.359-.599-.961-.479-1.442.599-.239 1.561-.601 2.041 0-.12.724-.961.961-1.562 1.442z"></path>
    </g>
  </g>
  <g id="SvgjsG1626">
    <g id="SvgjsG1625">
      <path id="SvgjsPath1624" d="M166.096 67.599c2.35 9.763 3.594 19.957 3.594 30.441 0 48.961-27.137 91.585-67.188 113.651-40.054-22.065-67.19-64.689-67.19-113.651 0-10.484 1.245-20.678 3.594-30.441h127.19z"></path>
      <path id="SvgjsPath1623" fill="#001689" d="M159.016 131.71c3.078-10.901 4.639-22.229 4.639-33.67 0-8.22-.809-16.408-2.407-24.406H43.754c-1.6 7.997-2.408 16.186-2.408 24.406 0 11.441 1.561 22.771 4.639 33.67 2.983 10.563 7.379 20.698 13.068 30.122 10.681 17.695 25.657 32.477 43.447 42.916 17.791-10.439 32.768-25.221 43.447-42.916 5.69-9.424 10.085-19.559 13.069-30.122z"></path>
    </g>
    <g id="SvgjsG1622">
      <path id="SvgjsPath1621" d="m102.512 151.757-.984 3.026-3.116 9.585H85.148l2.578 1.872 8.154 5.922-3.114 9.577-.985 3.03 2.578-1.873 8.151-5.924 8.158 5.924 2.576 1.869-.984-3.026-3.115-9.589 8.133-5.91 2.574-1.872h-13.241l-3.115-9.585-.984-3.026z"></path>
      <path id="SvgjsPath1620" fill="#FFC627" d="m107.928 171.756 8.74-6.354h-10.809l-3.347-10.298-3.349 10.298H88.334l8.763 6.366-3.347 10.291 8.76-6.366 8.765 6.366z"></path>
    </g>
    <g id="SvgjsG1619">
      <path id="SvgjsPath1618" d="M102.5 112.391 42.601 141.01c2.873 8.182 6.542 15.987 10.917 23.325l48.983-23.403 48.981 23.403c4.375-7.338 8.045-15.144 10.918-23.325l-59.9-28.619z"></path>
      <g id="SvgjsG1617">
        <g id="SvgjsG1616">
          <path id="SvgjsPath1615" fill="#FFC627" d="m145.184 146.771-1.717-3.166 3.25 1.553 2.486-2.615-.473 3.578 3.254 1.555-3.546.654-.473 3.576-1.72-3.172-3.55.655z"></path>
          <path id="SvgjsPath1614" fill="#FFC627" d="m135.691 142.236-1.714-3.166 3.25 1.553 2.485-2.615-.474 3.577 3.256 1.556-3.549.654-.47 3.576-1.721-3.173-3.55.656z"></path>
          <path id="SvgjsPath1613" fill="#FFC627" d="m126.2 137.701-1.716-3.166 3.25 1.553 2.487-2.615-.473 3.577 3.255 1.555-3.549.655-.472 3.576-1.718-3.173-3.551.653z"></path>
          <path id="SvgjsPath1612" fill="#FFC627" d="M116.709 133.166 114.993 130l3.25 1.553 2.486-2.615-.472 3.578 3.255 1.554-3.549.655-.472 3.576-1.72-3.173-3.548.654z"></path>
          <path id="SvgjsPath1611" fill="#FFC627" d="m107.218 128.631-1.716-3.166 3.25 1.553 2.486-2.618-.472 3.579 3.255 1.556-3.548.654-.473 3.577-1.721-3.173-3.549.654z"></path>
        </g>
        <g id="SvgjsG1610">
          <path id="SvgjsPath1609" fill="#FFC627" d="m97.783 128.631 1.715-3.166-3.249 1.553-2.487-2.618.473 3.579-3.256 1.556 3.549.654.472 3.577 1.72-3.173 3.55.654z"></path>
          <path id="SvgjsPath1608" fill="#FFC627" d="M88.292 133.166 90.006 130l-3.249 1.553-2.486-2.615.473 3.578-3.256 1.554 3.549.655.472 3.576 1.72-3.173 3.549.654z"></path>
          <path id="SvgjsPath1607" fill="#FFC627" d="m78.8 137.701 1.715-3.166-3.249 1.553-2.487-2.615.473 3.577-3.255 1.555 3.548.655.473 3.576 1.719-3.173 3.55.653z"></path>
          <path id="SvgjsPath1606" fill="#FFC627" d="m69.309 142.236 1.715-3.166-3.249 1.553-2.487-2.615.473 3.577-3.256 1.556 3.549.654.473 3.576 1.719-3.173 3.55.656z"></path>
          <path id="SvgjsPath1605" fill="#FFC627" d="m59.818 146.771 1.715-3.166-3.249 1.553-2.487-2.615.473 3.578-3.256 1.555 3.549.654.473 3.576 1.719-3.172 3.55.655z"></path>
        </g>
      </g>
    </g>
    <path id="SvgjsPath1604" d="M131.857 89.326c-3.428 0-6.207 2.779-6.207 6.208 0 3.429 2.779 6.208 6.207 6.208 3.43 0 6.209-2.779 6.209-6.208 0-3.429-2.779-6.208-6.209-6.208zm0 11.296c-2.81 0-5.086-2.278-5.086-5.087 0-2.809 2.276-5.087 5.086-5.087 2.811 0 5.088 2.277 5.088 5.087s-2.277 5.087-5.088 5.087zm0-14.658c-5.284 0-9.569 4.285-9.569 9.57 0 5.286 4.285 9.571 9.569 9.571 5.287 0 9.572-4.285 9.572-9.571.001-5.285-4.284-9.57-9.572-9.57zm0 18.193c-4.762 0-8.621-3.86-8.621-8.623 0-4.762 3.859-8.622 8.621-8.622 4.764 0 8.623 3.86 8.623 8.622 0 4.762-3.859 8.623-8.623 8.623zm0-22.591c-7.713 0-13.967 6.254-13.967 13.968s6.254 13.968 13.967 13.968c7.716 0 13.97-6.254 13.97-13.968s-6.254-13.968-13.97-13.968zm0 26.039c-6.666 0-12.07-5.404-12.07-12.071s5.404-12.071 12.07-12.071c6.668 0 12.072 5.404 12.072 12.071s-5.404 12.071-12.072 12.071z"></path>
    <g id="SvgjsG1603">
      <g id="SvgjsG1602">
        <path id="SvgjsPath1601" d="M77.625 75.99c-.465 0-.898.208-1.189.57-.034.042-.066.088-.097.138L51.56 108.507c-.392.162-.664.545-.664.995 0 .594.483 1.078 1.078 1.078.529 0 .97-.383 1.061-.886l25.74-31.182c.014-.016.026-.03.039-.045.254-.317.37-.715.326-1.119-.044-.405-.244-.768-.561-1.022-.27-.217-.609-.336-.954-.336z"></path>
        <path id="SvgjsPath1600" fill="#FFC627" d="M78.275 78.035c.288-.359.23-.884-.129-1.171-.359-.288-.884-.23-1.172.128-.025.032-.047.065-.067.099L51.96 109.116c-.208.007-.374.177-.374.387 0 .214.173.388.388.388.215 0 .388-.174.388-.388 0-.024-.003-.046-.007-.069L78.253 78.06c.008-.008.015-.016.022-.025z"></path>
        <path id="SvgjsPath1599" fill="#001689" d="M59.036 90.533c.532 8.089 7.261 14.485 15.485 14.485s14.952-6.396 15.485-14.485h-30.97z"></path>
      </g>
      <path id="SvgjsPath1598" d="M96.652 82.989H52.39c-.606 2.064-.933 4.249-.933 6.51 0 12.738 10.326 23.064 23.064 23.064s23.064-10.327 23.064-23.064c0-2.261-.326-4.445-.933-6.51zm-6.646 7.544c-.028.422-.073.839-.134 1.25H59.17c-.061-.412-.106-.829-.134-1.25h30.97zm-26.524 9.873c-.544-.55-1.047-1.141-1.504-1.767h25.086c-.457.626-.96 1.217-1.504 1.767H63.482zm-1.778-2.156c-.386-.564-.735-1.154-1.045-1.768h27.724c-.31.614-.66 1.204-1.045 1.768H61.704zm-1.234-2.155c-.269-.571-.503-1.161-.701-1.768h29.504c-.199.606-.433 1.197-.702 1.768H60.47zm-.823-2.156c-.171-.576-.311-1.166-.415-1.768h30.577c-.104.602-.243 1.191-.415 1.768H59.647zm4.231 6.855h21.286c-2.778 2.619-6.523 4.225-10.643 4.225s-7.865-1.606-10.643-4.225z"></path>
      <g id="SvgjsG1597">
        <path id="SvgjsPath1596" d="M81.198 92.17h2.877l-.04.225c-.401.008-.686.09-.854.246-.169.156-.31.464-.422.926l-.78 3.225c.404-.028.736-.13.996-.304s.458-.398.592-.671c.134-.273.289-.765.464-1.473.186-.729.368-1.24.547-1.534.179-.293.378-.49.599-.589.221-.099.52-.149.897-.149v.231c-.238.004-.427.103-.566.294-.139.193-.277.586-.413 1.182-.202.899-.409 1.562-.621 1.989-.212.427-.516.76-.912.999s-.952.358-1.667.358l-.438 1.858c-.056.235-.084.419-.084.553 0 .162.037.297.112.404.075.107.155.173.241.197.086.024.243.039.472.042l-.045.225h-2.877l.045-.225c.401 0 .687-.089.857-.267.171-.178.317-.517.44-1.015l.433-1.773c-.57-.049-1.007-.266-1.312-.653-.305-.387-.458-.839-.458-1.357 0-.195.013-.37.038-.525.025-.155.102-.485.231-.987.089-.348.134-.607.134-.777 0-.348-.156-.522-.467-.522v-.231c.275.008.49.05.646.125.156.075.291.211.405.41.115.199.172.419.172.662 0 .275-.073.695-.219 1.257-.116.458-.174.81-.174 1.057 0 .377.104.672.311.887.207.215.461.322.763.322l.75-3.14c.06-.259.089-.459.089-.602 0-.214-.055-.377-.164-.489s-.323-.167-.641-.167l.043-.224z"></path>
        <path id="SvgjsPath1595" d="m74.052 95.723 1.67 3.152c.298.559.545.917.74 1.072.195.155.452.234.771.234l-.055.225h-2.873l.045-.225c.229-.028.39-.095.484-.201.094-.105.142-.225.142-.358 0-.121-.017-.238-.05-.352-.026-.081-.123-.279-.288-.595l-1.367-2.618-.661 2.727c-.109.438-.164.731-.164.881 0 .154.046.271.139.352.092.081.321.136.686.164l-.08.225h-2.664l.064-.225c.259-.008.433-.037.522-.085.132-.073.23-.166.293-.279.086-.166.192-.51.318-1.033l1.188-4.975c.089-.38.134-.686.134-.917 0-.162-.042-.286-.127-.371s-.249-.127-.494-.127h-.1l.06-.225h2.529l-.05.225c-.208-.004-.364.024-.467.085-.142.085-.247.194-.313.328-.066.133-.164.468-.293 1.002l-.522 2.114 2.396-2.205c.318-.292.526-.522.626-.692.06-.105.089-.201.089-.286 0-.073-.031-.144-.092-.212-.062-.069-.155-.113-.281-.134l.05-.225h2.157l-.045.225c-.235.048-.433.112-.594.191-.161.079-.326.188-.495.325-.049.041-.373.34-.969.899l-2.059 1.914z"></path>
        <path id="SvgjsPath1594" d="m67.263 95.723 1.67 3.152c.298.559.545.917.74 1.072.196.156.453.234.771.234l-.055.225h-2.873l.045-.225c.229-.028.39-.095.484-.201.095-.105.142-.225.142-.358 0-.121-.017-.238-.05-.352-.027-.081-.123-.279-.289-.595l-1.367-2.618-.661 2.727c-.109.438-.164.731-.164.881 0 .154.046.271.139.352.093.081.321.136.686.164l-.079.225H63.74l.065-.225c.258-.008.432-.037.521-.085.133-.073.23-.166.293-.279.086-.166.192-.51.318-1.033l1.188-4.975c.089-.38.134-.686.134-.917 0-.162-.042-.286-.126-.371s-.25-.127-.495-.127h-.1l.06-.225h2.529l-.05.225c-.208-.004-.364.024-.467.085-.143.085-.247.194-.313.328-.066.133-.164.468-.293 1.002l-.522 2.114 2.396-2.205c.318-.292.527-.522.626-.692.06-.105.09-.201.09-.286 0-.073-.031-.144-.092-.212-.061-.069-.155-.113-.281-.134l.05-.225h2.157l-.045.225c-.235.048-.433.112-.594.191s-.325.188-.494.325c-.05.041-.373.34-.969.899l-2.063 1.914z"></path>
      </g>
      <path id="SvgjsPath1593" fill="#FFC627" d="M58.443 92.646h-5.901c-.146-1.028-.223-2.079-.223-3.147 0-1.952.252-3.845.726-5.648h6.094c-.646 1.761-1 3.663-1 5.648 0 .058.001.115.002.172.01 1.017.114 2.011.302 2.975zm37.555-8.795H60.061c-.684 1.75-1.06 3.655-1.06 5.648 0 .058.002.115.003.172h31.897c-.093 8.968-7.39 16.209-16.38 16.209-7.665 0-14.097-5.264-15.886-12.373H52.68c1.887 10.348 10.947 18.193 21.84 18.193 12.262 0 22.202-9.94 22.202-22.202.001-1.951-.252-3.844-.724-5.647z"></path>
      <g id="SvgjsG1592">
        <g id="SvgjsG1591">
          <circle cx="93.601" cy="92.354" r="2.371"></circle>
          <path fill="#FFF" d="M93.601 90.802c-.857 0-1.552.695-1.552 1.552s.695 1.552 1.552 1.552 1.552-.695 1.552-1.552-.695-1.552-1.552-1.552zm.56 2.414c-.19 0-.345-.154-.345-.345s.154-.345.345-.345.345.155.345.345-.154.345-.345.345z"></path>
        </g>
        <g id="SvgjsG1590">
          <circle cx="91.963" cy="97.743" r="2.371"></circle>
          <path fill="#FFF" d="M91.963 96.191c-.857 0-1.552.695-1.552 1.552 0 .857.695 1.552 1.552 1.552s1.552-.695 1.552-1.552c0-.857-.695-1.552-1.552-1.552zm.56 2.414c-.191 0-.345-.154-.345-.345 0-.191.154-.345.345-.345.19 0 .345.154.345.345 0 .191-.154.345-.345.345z"></path>
        </g>
        <g id="SvgjsG1589">
          <circle cx="88.838" cy="102.43" r="2.371"></circle>
          <path fill="#FFF" d="M88.838 100.877c-.857 0-1.552.695-1.552 1.552 0 .857.695 1.552 1.552 1.552s1.552-.695 1.552-1.552c0-.857-.695-1.552-1.552-1.552zm.56 2.415c-.19 0-.345-.155-.345-.345 0-.19.154-.345.345-.345s.345.154.345.345c0 .191-.154.345-.345.345z"></path>
        </g>
        <g id="SvgjsG1588">
          <circle cx="84.493" cy="106.014" r="2.371"></circle>
          <path fill="#FFF" d="M84.493 104.462c-.857 0-1.552.695-1.552 1.552s.695 1.552 1.552 1.552 1.552-.695 1.552-1.552-.694-1.552-1.552-1.552zm.561 2.414c-.19 0-.345-.154-.345-.345 0-.191.155-.345.345-.345.19 0 .345.155.345.345 0 .19-.155.345-.345.345z"></path>
        </g>
        <g id="SvgjsG1587">
          <circle cx="79.298" cy="108.19" r="2.371"></circle>
          <path fill="#FFF" d="M79.298 106.638c-.857 0-1.552.695-1.552 1.552s.695 1.552 1.552 1.552 1.552-.695 1.552-1.552-.695-1.552-1.552-1.552zm.56 2.414c-.19 0-.345-.154-.345-.345s.154-.345.345-.345.345.154.345.345-.154.345-.345.345z"></path>
        </g>
        <g id="SvgjsG1586">
          <circle cx="73.696" cy="108.773" r="2.371"></circle>
          <path fill="#FFF" d="M73.696 107.221c-.857 0-1.552.695-1.552 1.552s.695 1.552 1.552 1.552c.857 0 1.552-.695 1.552-1.552s-.695-1.552-1.552-1.552zm.56 2.415c-.19 0-.345-.154-.345-.345 0-.19.154-.345.345-.345s.345.154.345.345c0 .19-.154.345-.345.345z"></path>
        </g>
        <g id="SvgjsG1585">
          <circle cx="68.164" cy="107.714" r="2.371"></circle>
          <path fill="#FFF" d="M68.164 106.162c-.857 0-1.552.695-1.552 1.552s.695 1.552 1.552 1.552 1.552-.695 1.552-1.552c0-.858-.695-1.552-1.552-1.552zm.561 2.414c-.19 0-.345-.155-.345-.345s.155-.345.345-.345.345.154.345.345-.155.345-.345.345z"></path>
        </g>
        <g id="SvgjsG1584">
          <circle cx="63.174" cy="105.102" r="2.371"></circle>
          <path fill="#FFF" d="M63.174 103.549c-.857 0-1.552.695-1.552 1.552s.695 1.552 1.552 1.552c.857 0 1.552-.695 1.552-1.552s-.695-1.552-1.552-1.552zm.56 2.415c-.19 0-.345-.155-.345-.345s.154-.345.345-.345.345.154.345.345c0 .191-.154.345-.345.345z"></path>
        </g>
        <g id="SvgjsG1583">
          <circle cx="59.151" cy="101.159" r="2.371"></circle>
          <path fill="#FFF" d="M59.151 99.607c-.857 0-1.552.695-1.552 1.552 0 .857.695 1.552 1.552 1.552s1.552-.695 1.552-1.552c0-.857-.695-1.552-1.552-1.552zm.56 2.414c-.19 0-.345-.155-.345-.345 0-.19.154-.345.345-.345s.345.154.345.345c0 .191-.154.345-.345.345z"></path>
        </g>
        <g id="SvgjsG1582">
          <circle cx="56.438" cy="96.223" r="2.371"></circle>
          <path fill="#FFF" d="M56.438 94.671c-.857 0-1.552.695-1.552 1.552s.695 1.552 1.552 1.552 1.552-.695 1.552-1.552-.695-1.552-1.552-1.552zm.561 2.414c-.19 0-.345-.154-.345-.345 0-.191.155-.345.345-.345s.345.154.345.345c0 .191-.155.345-.345.345z"></path>
        </g>
      </g>
      <g id="SvgjsG1581">
        <g id="SvgjsG1580">
          <circle cx="92.843" cy="86.696" r="2.371"></circle>
          <path fill="#FFF" d="M92.843 85.145c-.857 0-1.552.695-1.552 1.552 0 .857.695 1.552 1.552 1.552.857 0 1.552-.695 1.552-1.552 0-.858-.695-1.552-1.552-1.552zm.56 2.414c-.19 0-.345-.154-.345-.345s.154-.345.345-.345c.191 0 .345.154.345.345s-.154.345-.345.345z"></path>
        </g>
        <g id="SvgjsG1579">
          <circle cx="85.546" cy="86.696" r="2.371"></circle>
          <path fill="#FFF" d="M85.546 85.145c-.857 0-1.552.695-1.552 1.552 0 .857.695 1.552 1.552 1.552s1.552-.695 1.552-1.552c.001-.858-.694-1.552-1.552-1.552zm.561 2.414c-.19 0-.345-.154-.345-.345s.154-.345.345-.345.345.154.345.345-.155.345-.345.345z"></path>
        </g>
        <g id="SvgjsG1578">
          <circle cx="78.25" cy="86.696" r="2.371"></circle>
          <path fill="#FFF" d="M78.25 85.145c-.857 0-1.552.695-1.552 1.552 0 .857.695 1.552 1.552 1.552s1.552-.695 1.552-1.552c0-.858-.695-1.552-1.552-1.552zm.561 2.414c-.19 0-.345-.154-.345-.345s.155-.345.345-.345.345.154.345.345-.155.345-.345.345z"></path>
        </g>
        <g id="SvgjsG1577">
          <circle cx="70.954" cy="86.696" r="2.371"></circle>
          <path fill="#FFF" d="M70.954 85.145c-.857 0-1.552.695-1.552 1.552 0 .857.695 1.552 1.552 1.552s1.552-.695 1.552-1.552c-.001-.858-.695-1.552-1.552-1.552zm.56 2.414c-.19 0-.345-.154-.345-.345s.154-.345.345-.345.345.154.345.345-.155.345-.345.345z"></path>
        </g>
        <g id="SvgjsG1576">
          <circle cx="63.657" cy="86.696" r="2.371"></circle>
          <path fill="#FFF" d="M63.657 85.145c-.857 0-1.552.695-1.552 1.552 0 .857.695 1.552 1.552 1.552.857 0 1.552-.695 1.552-1.552 0-.858-.695-1.552-1.552-1.552zm.56 2.414c-.19 0-.345-.154-.345-.345s.154-.345.345-.345c.191 0 .345.154.345.345s-.154.345-.345.345z"></path>
        </g>
      </g>
      <g id="SvgjsG1575">
        <path id="SvgjsPath1574" d="M56.12 91.342h-1.528l-.226.315c-.031.044-.047.079-.047.104 0 .048.055.082.165.1v.053h-1.112v-.054c.065-.009.116-.024.15-.046.035-.022.074-.064.118-.128l1.237-1.723c.039-.055.059-.099.059-.131 0-.05-.048-.086-.143-.108v-.052h1.192v.052c-.097.019-.146.051-.146.097 0 .031.016.067.047.108l1.281 1.727c.054.074.102.124.143.15.041.026.096.044.165.053v.053h-1.237v-.052c.108-.012.163-.046.163-.102 0-.023-.017-.057-.049-.102l-.232-.314zm-.212-.307-.545-.798-.554.798h1.099z"></path>
        <path id="SvgjsPath1573" d="M54.684 88.343v.614h2.163c.049 0 .087-.007.113-.023.026-.015.048-.042.064-.082h.079v.58h-.079c-.016-.04-.038-.067-.064-.082s-.064-.023-.113-.023h-3.054v-.053c.059-.011.1-.025.123-.042s.035-.043.035-.077v-1.896c0-.034-.012-.06-.035-.077-.023-.018-.064-.032-.123-.043v-.052h2.995c.049 0 .087-.008.113-.023s.048-.043.064-.082h.079v.58h-.079c-.016-.039-.038-.066-.064-.082s-.064-.023-.113-.023h-2.104v.532h1.365c.049 0 .087-.008.113-.023.026-.016.047-.043.064-.083h.079v.567h-.079c-.017-.039-.038-.065-.064-.082-.026-.016-.064-.023-.113-.023h-1.365v-.002z"></path>
        <path id="SvgjsPath1572" d="M56.12 86.168h-1.528l-.226.315c-.031.043-.047.078-.047.103 0 .048.055.082.165.1v.053h-1.112v-.053c.065-.009.116-.024.15-.046.035-.021.074-.064.118-.128l1.237-1.723c.039-.055.059-.099.059-.131 0-.05-.048-.086-.143-.108v-.052h1.192v.052c-.097.019-.146.051-.146.097 0 .032.016.068.047.108l1.281 1.728c.054.073.102.123.143.15.041.027.096.044.165.053v.053h-1.237v-.053c.108-.012.163-.046.163-.102 0-.023-.017-.057-.049-.102l-.232-.314zm-.212-.307-.545-.798-.554.798h1.099z"></path>
      </g>
    </g>
  </g>
  <g id="SvgjsG1571">
    <path id="SvgjsPath1570" d="M136.299 58.157H68.701c-1.952 0-3.535 1.583-3.535 3.535 0 1.952 1.583 3.535 3.535 3.535h67.598c1.953 0 3.535-1.583 3.535-3.535 0-1.952-1.582-3.535-3.535-3.535z"></path>
    <path id="SvgjsPath1569" fill="#FFC627" d="M76.806 63.718h-8.105c-1.119 0-2.026-.907-2.026-2.026 0-1.119.907-2.026 2.026-2.026h4.139l3.966 4.052zm25.935 0-3.966-4.052H89.29l3.966 4.052h9.485zm25.936 0-3.966-4.052h-9.484l3.967 4.052h9.483z"></path>
    <path id="SvgjsPath1568" fill="#001689" d="M128.193 59.666h8.104c1.119 0 2.026.907 2.026 2.026 0 1.119-.907 2.026-2.026 2.026h-4.139l-3.965-4.052zm-38.42 4.052-3.966-4.052h-9.484l3.966 4.052h9.484zm25.936 0-3.966-4.052h-9.484l3.966 4.052h9.484z"></path>
  </g>
  <g id="SvgjsG1567">
    <path id="SvgjsPath1566" d="M126.373 11.424c2.158-3.474 6.455-5.512 10.65-3.949 3.365 1.198 5.028 4.672 5.521 7.899-.137 1.673.355 4.077-1.206 5.028-.595-2.752-3.347-5.028-5.979-5.988-.611-.238-1.801-.238-2.039.484 1.309 1.198 3.467 2.514 2.99 4.553-1.188.476-2.752.595-3.602 1.792-.833 1.198-.238 2.515 0 3.831 1.206 3.355 4.553 4.909 7.561 6.107 10.176-4.187 22.271-1.792 31.971 1.92 2.396-.604 4.791.238 7.305.119 10.057 1.673 14.609 12.096 21.201 19.163.832 1.079 2.396 1.197 3.107 2.276-.832.594-2.039.594-3.107.594-.969.484-1.92-.476-2.871 0 .714 12.58-9.581 21.795-6.354 34.851.476 1.444 1.563 2.642 1.92 4.077-1.444.476-3.127.119-4.553-.238l-.238.356c-.713 3.355-1.92 7.186-.851 10.66l-.476.119c-4.196-1.316-4.553-6.106-5.385-9.819l-.237-.119c-.97 2.148-1.92 4.187-2.396 6.464-1.326 5.869-3.109 13.53.713 18.678.851 1.315 2.515 2.157 4.076 1.801 2.396-.483 3.229-2.999 4.078-4.672 1.188.722 1.545 1.92 2.141 2.752 3.125-1.436 6.115-3.712 9.817-3.227.375 3.227.138 7.067-1.308 10.175l.119.236c1.324 0 2.514-.476 3.839-.355-.493 3.594-3.958 6.107-6.828 7.671-4.196 1.909-9.819 1.553-13.896-.722-4.554-2.881-7.781-7.791-8.375-13.057-1.683-7.661 0-15.094 0-22.636 0-1.079-1.207-1.911-.613-2.871 2.277-.96 4.554-2.752 5.761-4.91.476-.722 1.188-1.563.951-2.276-1.444-.128-3.108-.484-4.196-1.436.355-.365.85-.603 1.325-.959 5.979-4.315 10.532-10.422 12.928-17.005l-.237-.119c-3.466 4.909-9.345 5.86-13.402 9.819-.612-1.445-.612-2.999-.256-4.553-1.07-.841-2.615-.722-3.465-1.801.475-1.792 2.275-2.752 3.465-4.068-.237-1.92-.356-4.791.969-6.345 1.07 1.673 2.752 3.108 4.791 3.108 2.038-.119 3.701-1.198 5.266-2.752 1.088-1.801 2.514-3.712 2.039-5.988-.595 0-.951.604-1.563.841-.951.237-2.157.96-2.99.475 1.563-1.911 2.99-4.187 3.229-6.82.118-4.315-2.277-8.63-6.336-10.542-2.515-.959-5.879-1.444-8.394 0-5.146 2.515-7.779 8.384-7.661 14.006 0 .366.238 1.079-.118 1.444-1.325-.484-2.396-1.801-3.603-2.761-2.614 2.999-6.454 4.196-10.176 4.791.119-3.108-.476-6.701.476-9.7.375-.841.97-1.673 1.207-2.395-1.802-.723-3.722-2.514-4.077-4.306 3.84-.722 7.898-1.563 10.906-3.958-4.672 0-10.906-2.03-14.254 2.514-1.563 1.92-.85 4.553-1.682 6.591-1.188-1.079-2.871-2.276-3.822-3.593-3.006.594-6.233 1.316-9.461 1.554-1.444.238-3.246.356-4.315-.356l1.069-.723 7.067-8.502-2.634-1.792c-4.314-3.118-4.314-9.105-9.105-12.333 2.16-2.639 1.921-6.232 3.603-9.103m-47.746 0c-2.158-3.474-6.464-5.512-10.66-3.949-3.355 1.198-5.029 4.672-5.504 7.899.119 1.673-.365 4.077 1.198 5.028.594-2.752 3.346-5.028 5.988-5.988.594-.238 1.792-.238 2.029.484-1.308 1.198-3.465 2.514-2.99 4.553 1.198.476 2.752.595 3.593 1.792.841 1.198.238 2.515 0 3.831-1.198 3.355-4.553 4.909-7.542 6.107-10.185-4.187-22.28-1.792-31.979 1.92-2.396-.604-4.791.238-7.305.119-10.057 1.673-14.609 12.095-21.201 19.162-.832 1.079-2.395 1.197-3.108 2.276.832.594 2.039.594 3.108.594.96.484 1.92-.476 2.88 0-.722 12.58 9.581 21.795 6.345 34.851-.476 1.444-1.554 2.642-1.92 4.077 1.444.476 3.117.119 4.553-.238l.238.356c.722 3.355 1.92 7.186.841 10.66l.484.119c4.187-1.316 4.544-6.106 5.385-9.819l.238-.119c.96 2.148 1.919 4.187 2.396 6.464 1.316 5.869 3.117 13.53-.713 18.678-.841 1.316-2.515 2.156-4.078 1.801-2.395-.484-3.227-2.999-4.068-4.672-1.197.722-1.554 1.92-2.158 2.752-3.117-1.436-6.106-3.712-9.818-3.227-.366 3.227-.128 7.067 1.316 10.174l-.119.238c-1.325 0-2.514-.477-3.83-.356.475 3.594 3.949 6.106 6.82 7.671 4.196 1.908 9.819 1.553 13.896-.723 4.552-2.881 7.78-7.789 8.383-13.056 1.673-7.661 0-15.094 0-22.636 0-1.079 1.198-1.911.603-2.871-2.276-.96-4.553-2.752-5.75-4.91-.484-.722-1.197-1.563-.96-2.276 1.436-.128 3.109-.484 4.188-1.436-.356-.365-.841-.603-1.316-.959-5.99-4.314-10.543-10.421-12.939-17.004l.247-.119c3.465 4.909 9.343 5.86 13.412 9.819.594-1.445.594-2.999.238-4.553 1.079-.841 2.633-.722 3.474-1.801-.476-1.792-2.276-2.752-3.474-4.068.238-1.92.356-4.791-.96-6.345-1.079 1.673-2.752 3.108-4.791 3.108-2.039-.119-3.712-1.198-5.266-2.752-1.079-1.801-2.514-3.712-2.039-5.988.594 0 .96.604 1.554.841.96.237 2.157.96 2.999.475-1.563-1.911-2.999-4.187-3.228-6.82-.127-4.315 2.268-8.63 6.336-10.542 2.523-.959 5.87-1.444 8.393 0 5.147 2.515 7.78 8.384 7.661 14.006 0 .366-.238 1.079.119 1.444 1.316-.484 2.396-1.801 3.593-2.761 2.633 2.999 6.464 4.196 10.185 4.791-.128-3.108.475-6.701-.484-9.7-.357-.841-.96-1.673-1.198-2.395 1.801-.723 3.712-2.514 4.077-4.306-3.84-.722-7.908-1.563-10.907-3.958 4.672 0 10.907-2.03 14.253 2.514 1.563 1.92.841 4.553 1.682 6.591 1.189-1.079 2.871-2.276 3.831-3.593 2.99.594 6.226 1.316 9.454 1.554 1.444.238 3.236.356 4.315-.356l-1.079-.723-7.058-8.502 2.633-1.792c4.306-3.118 4.306-9.105 9.097-12.333-2.149-2.639-1.911-6.232-3.593-9.103"></path>
    <path id="SvgjsPath1565" fill="#FFC627" d="M127.563 12.147c1.563-3.84 6.354-4.434 9.582-2.999 2.395 1.435 4.076 4.187 3.84 7.066-.477.119-1.207-.841-1.803-1.197-1.918-1.801-5.146-2.396-7.541-1.436-1.563.832-2.277 2.396-2.871 3.831-.477 3.236.237 6.948 2.157 9.582 1.546 2.514 4.196 4.553 6.454 5.622-.477.604-1.188 1.207-2.021 1.079-4.553-2.03-6.709-7.058-8.748-11.254 0-1.673-3.84-1.673-1.325-3.474.731-2.157.968-4.79 2.276-6.82m5.876 26.457c-.851 1.326-2.037 2.523-2.871 3.721l.119.119c4.535-1.801 7.899-6.71 12.571-8.265 3.466-1.563 7.066-2.752 10.65-3.474l.118-.238c-2.989-.484-5.979.119-8.85.595-4.549 1.079-8.863 3.474-11.737 7.542m19.165-3.583-.119.119.356.238c5.146.594 10.771 1.079 14.966-1.682-5.03-1.317-10.534-.714-15.203 1.325m.119 6.939-1.089.247c.851 1.07 2.396 1.792 3.483 2.871-.238.96-1.444 1.436-1.563 2.514-.832 2.039-.951 4.434-.714 6.71h.356c4.671-5.75 7.66-13.54 15.085-16.529 3.364-1.554 7.542-2.395 11.024-.96 3.346 2.158 7.543 4.791 8.986 8.74 1.188 2.752.714 6.107-.118 8.987.832.841 2.515-2.395 2.634 0 .594 4.791-2.396 9.097-6.354 11.254-2.396.841-5.028.722-6.947-.96-.237 1.198-.118 2.514-.118 3.84l-2.871 2.871.237.119c6.218-2.989 14.847-3.593 17.599-11.501.731.484.612 1.682.731 2.396.119 5.631-2.396 10.422-3.959 15.569l-3.228 10.779-.375.119c.612.722-.237 1.682-.119 2.523-.475 3.108-.713 6.582.613 9.453.95-2.752.95-6.226 1.664-9.097 1.207.356 2.157 1.436 3.363.841-5.146-11.738 3.939-22.517 5.385-33.662.119-1.554.119-3.831 0-5.385.596-.476 1.326.356 2.039.119h1.545c-.832-1.436-2.021-2.514-3.107-3.831-4.434-6.71-10.057-14.847-18.807-15.451-9.698-.841-17.002 4.791-25.375 7.424m21.795 54.497c.832 2.752.355 5.623.119 8.74-1.326 9.819-.714 22.389 8.867 27.903 3.583 2.157 8.969 1.682 12.57 0 1.801-1.08 3.584-2.634 4.435-4.427-.97-.483-2.157.229-3.245 0-.356.11-.714-.127-.832-.364 1.801-2.396 2.275-5.267 2.396-8.384-.832.357-1.188 1.437-1.683 2.276-1.92 4.434-6.217 8.266-11.363 7.79-5.047-.365-7.917-5.87-8.987-10.066-1.444-8.383.238-16.886 3.465-24.309l1.563-3.118c-.237-1.079 0-2.514-.477-3.474-1.682 2.761-3.602 5.998-6.828 7.433m-97.089-84.31c1.316 2.03 1.563 4.663 2.276 6.82 2.514 1.801-1.316 1.801-1.316 3.474-2.039 4.197-4.196 9.225-8.74 11.254-.841.128-1.554-.476-2.039-1.079 2.276-1.069 4.91-3.108 6.464-5.622 1.92-2.633 2.642-6.345 2.158-9.582-.595-1.435-1.316-2.999-2.871-3.831-2.395-.96-5.631-.365-7.542 1.436-.603.356-1.326 1.316-1.801 1.197-.238-2.879 1.436-5.631 3.831-7.066 3.235-1.435 8.026-.841 9.58 2.999M71.56 38.604c-2.871-4.068-7.186-6.463-11.739-7.542-2.871-.476-5.86-1.079-8.859-.595l.119.238c3.593.722 7.186 1.911 10.66 3.474 4.671 1.554 8.027 6.464 12.571 8.265l.128-.119c-.842-1.197-2.039-2.395-2.88-3.721m-19.163-3.583c-4.672-2.039-10.175-2.642-15.204-1.326 4.188 2.761 9.819 2.276 14.966 1.682l.366-.238-.128-.118m-.119 6.939c-8.383-2.633-15.688-8.265-25.388-7.424-8.74.604-14.372 8.74-18.797 15.451-1.087 1.316-2.276 2.395-3.117 3.831H6.53c.722.238 1.445-.594 2.039-.119-.119 1.554-.119 3.831 0 5.385 1.435 11.145 10.532 21.923 5.385 33.662 1.197.595 2.157-.484 3.364-.841.713 2.871.713 6.345 1.673 9.097 1.316-2.871 1.079-6.345.594-9.453.119-.841-.722-1.801-.119-2.523l-.366-.119-3.227-10.779c-1.563-5.147-4.078-9.938-3.95-15.569.119-.713 0-1.911.713-2.396 2.761 7.908 11.382 8.512 17.608 11.501l.238-.119-2.871-2.871c0-1.326.119-2.642-.119-3.84-1.92 1.682-4.553 1.801-6.948.96-3.958-2.158-6.948-6.464-6.345-11.254.11-2.395 1.792.841 2.633 0-.841-2.879-1.316-6.235-.119-8.987 1.435-3.949 5.631-6.583 8.978-8.74 3.474-1.435 7.661-.594 11.025.96 7.424 2.99 10.414 10.779 15.085 16.529h.357c.238-2.276.119-4.671-.713-6.71-.128-1.079-1.316-1.554-1.563-2.514 1.079-1.079 2.642-1.801 3.474-2.871l-1.078-.247M30.483 96.457c-3.228-1.435-5.147-4.672-6.83-7.433-.476.96-.238 2.396-.476 3.474l1.563 3.118c3.228 7.423 4.9 15.926 3.465 24.309-1.07 4.196-3.949 9.701-8.978 10.066-5.156.476-9.462-3.356-11.382-7.79-.475-.84-.841-1.919-1.673-2.276.119 3.118.604 5.989 2.396 8.384-.119.237-.476.476-.841.364-1.079.229-2.276-.483-3.236 0 .841 1.793 2.642 3.347 4.434 4.427 3.593 1.682 8.987 2.157 12.58 0 9.581-5.515 10.175-18.083 8.859-27.903-.237-3.117-.722-5.988.119-8.74"></path>
    <path id="SvgjsPath1564" fill="#001689" d="M141.34 36.575 139.182 41c-.236.128-.713.365-.832.128.713-1.682 1.307-3.593 2.99-4.553zm-8.63 6.107c.729.238 1.325-.476 1.919-.96l.119-.476c-.596.714-1.664.595-2.038 1.436zm3.007-.722c.237.119.832 0 1.07-.238.594-.96 1.324-2.039 1.324-3.108-1.088.832-1.681 2.148-2.394 3.346zm4.791-1.198c0 .238.237.238.477.366l.355-.366c.713-1.911 1.92-3.712 2.633-5.623-1.801 1.674-2.633 3.593-3.465 5.623zm14.254 14.134c.713-.119 1.307-1.198 1.545-2.158-.714.604-1.19 1.436-1.545 2.158zm-4.317-20.36c1.308 0 2.275-1.435 2.988-2.633-1.324.357-2.275 1.436-2.988 2.633zm-.593-1.791-3.127 3.593c-.119.119 0 .356 0 .475 2.039-.356 2.276-2.871 3.84-4.068-.12-.366-.476 0-.713 0zm-2.771 1.069c-2.752 2.039-3.94 5.275-5.386 8.146l.951.96c1.326-2.99 2.295-6.226 4.553-8.859l-.118-.247zM133.084 16.81l-.256-.476c-1.426.356-2.496 1.673-3.107 2.99v1.326c.611-1.445 1.8-3.118 3.363-3.84zm52.084 70.66c-1.783 3.355-1.664 7.67-1.07 11.739l.596 1.554c.119-.96-.477-2.633-.356-3.95-.119-3.355.476-6.345 1.188-9.462l-.358.119zm2.275-6.82-.118-.247c-2.276 3.474-4.673 7.186-4.554 11.62l.238.119c.97-4.078 3.009-7.662 4.434-11.492zm-4.55 5.622c1.563-4.187 4.908-7.78 6.473-11.977-2.636 3.594-6.1 7.425-6.473 11.977zm6.709-20.24c-2.156 1.444-4.313 3.593-5.979 5.513l.119.119c2.139-1.436 4.671-3.356 5.86-5.632zm-35.081-33.169c.951.119 1.545-.484 1.901-1.198l-.237-.366c-.71.001-1.306.961-1.664 1.564zm-21.693-14.134c.375-.604 1.801-.604 1.088-1.555-2.157 1.079-2.989 3.474-3.721 5.385 0 .841.373 1.435.73 2.039h.237c-.474-2.157.121-4.314 1.666-5.869zm-2.26-3.117c-.373.366-.611.96-.85 1.563.612-.237 1.325-.96 1.92-1.325-.117-.357-.711-.595-1.07-.238zM177.15 38.05c.297.168.651.04.91-.04l.178-.059.971-.287-.891-.297c-.377-.129-.813-.268-1.269-.119l-.257.08.061.267c.059.258.198.386.297.455zm5.502 33.257-.236-.119c-1.428.951-3.229 1.792-4.314 3.475l.237.119c1.802-.605 3.007-2.159 4.313-3.475zm-1.068 15.322.832-3.346c-1.07.475-1.428 2.148-1.428 3.227.119.119.358.247.596.119zm-1.443-.237.117-1.079c-.475.247-1.188.485-1.188 1.079.357 0 .713.365 1.071 0zm-20.948-55.211c-.118-.357-.85-.119-1.088.119-.237.366-.594.485-.832.723v.237c.954.238 1.428-.357 1.92-1.079zm22.153 39.403c-1.443.722-3.839 1.316-3.957 3.236h.355c.969-1.316 2.397-2.276 3.602-3.236zm7.662 51.023c0-.365 0-.961-.476-1.08-1.445 2.158-3.722 2.99-6.116 2.871-1.684-.119-2.871-1.555-3.939-2.752.119 1.555.832 3.475 2.514 4.188 3.463.604 5.62-1.555 8.017-3.227zm1.562.594v-.237c-2.889 2.03-5.641 3.95-9.344 3.831 0 .723.832.723 1.426.84 3.366.715 6.237-1.918 7.918-4.434zm6.099-3.117c-2.871 3.475-4.672 8.382-9.344 9.7.356.364 1.444.364 1.92 0 4.435-1.556 6.592-5.988 8.272-9.819v-.238l-.848.357zm-2.039 1.198-.118-.119c-2.277.604-2.753 3.235-4.672 4.672-1.783 1.8-3.939 2.751-6.574 2.88.356.477 1.188.713 2.021.594 4.434-.357 7.186-4.434 9.343-8.027zm-17.241-48.975c-.356.356-1.07.238-1.445.713.138.366.731.604 1.089.238.115-.238.83-.595.356-.951zm-17.006-20.122c.832-.238 1.07-1.198 1.309-2.039.73-2.029.969-4.306 1.682-6.345-2.517 1.91-2.04 5.632-2.991 8.384zm2.871 1.197c-.119.356.355.356.493.603.22-.366.356-1.079.101-1.444-.357 0-.475.484-.594.841zm-1.07-20.597c-.117-.604-.85 0-1.088-.357-.355-.128-.594.119-.949.357.591.356 1.306.118 2.037 0zm-4.198 20.597c0 .356-.355.603-.355.959.715 0 1.07-1.079 1.444-1.801l.714-4.068c-1.562 1.079-.971 3.475-1.803 4.91zm3.959-1.197c.119.237.356.476.596.476.95-1.673.831-3.95 1.801-5.751.594-1.911 1.069-3.949 2.276-5.623-3.483 2.514-2.651 7.542-4.673 10.898zm13.166-13.897c-.356.247-.477.484-.713.722.594 0 1.426 0 1.801-.603-.119-.357-.849-.238-1.088-.119zm-4.315 2.276c1.088 0 2.277-1.197 2.634-2.148-1.19.119-2.022 1.316-2.634 2.148zm-3.584 1.92c-.729 1.436-1.683 2.871-1.801 4.553 1.563-2.514 2.871-5.275 4.791-7.67-1.307.365-2.158 1.92-2.99 3.117zM24.861 86.392l-.119-1.079c.475.247 1.188.485 1.188 1.079-.356 0-.713.365-1.069 0zm-.841.118c0-1.079-.366-2.752-1.436-3.227l.832 3.346c.238.128.484 0 .604-.119zm-1.436 36.888c-2.396.119-4.671-.713-6.116-2.871-.476.119-.476.714-.476 1.08 2.395 1.672 4.553 3.83 8.027 3.228 1.673-.714 2.386-2.634 2.514-4.188-1.078 1.199-2.276 2.632-3.949 2.751zm0-52.21-.238.119c1.308 1.316 2.505 2.871 4.306 3.474l.238-.119c-1.078-1.683-2.87-2.523-4.306-3.474zm5.385 1.069c.356.366.959.128 1.079-.238-.366-.475-1.079-.356-1.436-.713-.484.357.238.714.357.951zm-4.315-1.673c1.207.96 2.642 1.919 3.602 3.236h.356c-.119-1.919-2.514-2.513-3.958-3.236zm6.235-33.296c-.247-.119-.96-.238-1.079.119.356.603 1.197.603 1.792.603-.238-.238-.356-.475-.713-.722zm-15.451 84.913c1.673 2.516 4.544 5.146 7.908 4.434.595-.117 1.426-.117 1.426-.84-3.711.119-6.463-1.801-9.334-3.831v.237zm7.781-30.178c.127-4.434-2.268-8.146-4.544-11.62l-.128.247c1.435 3.831 3.474 7.415 4.434 11.492l.238-.119zm-1.317 7.186c.604-4.068.722-8.384-1.079-11.739l-.356-.119c.722 3.117 1.316 6.106 1.198 9.462.119 1.316-.476 2.99-.357 3.95l.594-1.554zM26.94 38.01c.257.08.613.208.9.04.109-.069.248-.197.307-.456l.05-.267-.248-.08c-.456-.148-.891-.01-1.267.119l-.89.297.97.287.178.06zm-16.451 82.153-.119.119c2.149 3.593 4.91 7.67 9.335 8.026.841.118 1.682-.119 2.039-.595-2.642-.129-4.791-1.08-6.592-2.88-1.911-1.435-2.386-4.065-4.663-4.67zm21.073-82.747c.356.951 1.554 2.148 2.633 2.148-.594-.832-1.435-2.029-2.633-2.148zm42.877-21.804c-.366-.356-.96-.119-1.079.238.594.365 1.317 1.088 1.92 1.325-.246-.603-.484-1.197-.841-1.563zM8.331 119.084l-.841-.357v.238c1.673 3.831 3.831 8.264 8.265 9.819.476.364 1.554.364 1.92 0-4.672-1.317-6.473-6.225-9.344-9.7zm12.928-47.421.127-.119c-1.682-1.92-3.839-4.068-5.988-5.513 1.189 2.277 3.712 4.197 5.861 5.632zm.841 14.609c-.356-4.553-3.831-8.383-6.463-11.977 1.553 4.197 4.908 7.79 6.463 11.977zm21.795-54.844c-.238.357-.96-.247-1.079.357.722.119 1.444.356 2.039 0-.357-.238-.594-.485-.96-.357zm22.993 7.186c0 1.07.722 2.148 1.325 3.108.238.238.833.356 1.07.238-.713-1.198-1.316-2.514-2.395-3.346zm-3.228-2.039L65.818 41c.238.128.713.365.832.128-.713-1.682-1.317-3.593-2.99-4.553zm0 4.187.357.366c.238-.128.475-.128.475-.366-.832-2.03-1.673-3.95-3.465-5.623.714 1.911 1.911 3.713 2.633 5.623zm-5.75-6.948-.118.247c2.276 2.633 3.236 5.87 4.553 8.859l.959-.96c-1.444-2.871-2.633-6.107-5.394-8.146zm14.253-17.48-.238.476c1.555.722 2.752 2.395 3.355 3.84v-1.326c-.603-1.317-1.682-2.634-3.117-2.99zM55.158 32.745c-.247 0-.604-.366-.722 0 1.563 1.197 1.801 3.711 3.831 4.068 0-.119.128-.356 0-.475l-3.109-3.593zm15.085 8.502.127.476c.595.484 1.189 1.198 1.911.96-.356-.842-1.435-.723-2.038-1.436zm.841-24.072c-.713.951.713.951 1.079 1.555 1.554 1.554 2.149 3.711 1.673 5.869h.238c.366-.604.722-1.198.722-2.039-.722-1.911-1.554-4.306-3.712-5.385zM41.143 51.541c-.238.366-.119 1.079.119 1.444.119-.247.604-.247.484-.603-.127-.357-.237-.841-.603-.841zm.484-8.74c.713 2.039.951 4.315 1.673 6.345.237.841.475 1.801 1.316 2.039-.959-2.752-.474-6.474-2.989-8.384zm-3.236-2.514c1.198 1.673 1.673 3.712 2.268 5.623.969 1.801.841 4.078 1.801 5.751.238 0 .476-.238.594-.476-2.03-3.356-1.189-8.384-4.663-10.898zm6.82 7.186.722 4.068c.366.722.722 1.801 1.436 1.801 0-.356-.357-.603-.357-.959-.841-1.436-.238-3.832-1.801-4.91zm-10.413-9.106c1.919 2.395 3.227 5.156 4.791 7.67-.119-1.682-1.079-3.117-1.801-4.553-.832-1.197-1.673-2.752-2.99-3.117zM46.894 31.3c-.238-.237-.96-.476-1.079-.119.485.722.96 1.316 1.911 1.079v-.237c-.238-.238-.595-.357-.832-.723zm1.919 0-.247.366c.365.713.959 1.316 1.919 1.198-.364-.604-.959-1.564-1.672-1.564zm-.127 21.439c.247.96.841 2.039 1.554 2.158-.357-.723-.832-1.555-1.554-2.158zm2.879-20.836c.713 1.198 1.673 2.633 2.989 2.633-.712-1.197-1.672-2.276-2.989-2.633z"></path>
  </g>
  <g id="SvgjsG1563">
    <path id="SvgjsPath1562" d="M124.486 31.331c-.326-4.484-2.832-9.107-4.784-12.302-.792-1.293-1.79-2.324-2.246-3.516 1.403-.292 2.586-.639 3.224-1.465 1.793-2.33-.091-5.729-3.029-5.86-3.545-.159-4.664 2.646-5.762 5.176l-.011.043h-1.487v-7.76c.433-.209.731-.651.731-1.165 0-.714-.579-1.293-1.293-1.293-.716 0-1.294.579-1.294 1.293 0 .514.3.956.732 1.165v7.76h-1.896V4.053c.434-.209.732-.651.732-1.164 0-.714-.578-1.293-1.293-1.293s-1.293.579-1.293 1.293c0 .513.299.955.732 1.164v9.355h-1.725V2.458c.433-.209.731-.651.731-1.164 0-.714-.579-1.293-1.293-1.293s-1.293.579-1.293 1.293c0 .513.299.955.731 1.164v10.95h-1.854V2.458c.433-.209.733-.651.733-1.164 0-.714-.579-1.293-1.293-1.293s-1.293.579-1.293 1.293c0 .513.3.955.733 1.164v10.95h-1.725V4.053c.434-.209.733-.651.733-1.164 0-.714-.579-1.293-1.293-1.293s-1.293.579-1.293 1.293c0 .513.3.955.733 1.164v9.355h-1.897v-7.76c.433-.209.733-.651.733-1.165 0-.714-.579-1.293-1.293-1.293s-1.293.579-1.293 1.293c0 .514.3.956.733 1.165v7.76h-1.513l-.011-.043c-.504-1.011-.603-1.856-1.171-2.734-1.318-2.038-4.447-3.334-6.738-1.758-1.022.704-1.908 2.41-1.269 4.396.46 1.428 2.059 1.813 3.614 2.343-.279.936-1.082 1.637-1.661 2.539-.534.831-1.035 1.79-1.564 2.734-1.87 3.334-4.234 8.119-3.71 13.084.43 4.044 2.504 6.996 5.371 8.788 2.401 1.501 6.424 1.362 9.18.293-.375 1.124-1.652 1.343-1.465 3.027-2.026-.237-2.687.894-2.637 2.734-2.799 0-2.799 4.004 0 4.004 1.65 0 2.889.097 4.785.097h13.281c3.324 0 7.532.746 7.813-1.758.211-1.88-1.313-2.523-3.029-2.44.396-2.151-.83-2.682-2.537-2.735.42-1.789-1.377-1.878-1.369-2.929 2.668 1.037 6.574 1.189 8.89-.097.524-.293.882-.764 1.364-1.172.517-.435 1.104-.769 1.467-1.172 1.971-2.201 3.116-5.374 2.831-9.278zM109.27 14.528v17.094l-.015.001c-.603-.052-1.415.112-1.858-.098l-.024.002v-17l1.897.001zm-.7 31.45c-.541.275-1.234.265-1.857.293-3.297.15-7.292.013-10.349-.195.774-.494 2.713.175 3.221-.586-.904-.429-2.534-.134-3.417-.586 1.416-.618 3.406-.391 5.37-.391 2.592 0 5.298-.177 7.325.293-.805.598-2.568.233-3.516.684.561.675 2.249.226 3.223.488zm-2.929-8.788c-.361.289-.916.385-1.463.488.268.348.973.263 1.172.683.072.367-.259.331-.393.488.052.326.762.34.49.684-.615-.127-.762.217-1.176.293.271.22.725.251.978.488-.106.38-.739.236-1.071.391-.176.151-.068.586-.293.684h-2.835c-.129-.164-.258-.328-.193-.684-.37-.086-.839-.073-1.076-.292.116-.374.572-.406.977-.488-.34-.212-.602-.504-1.269-.391-.035-.426.372-.408.587-.585-.075-.286-.529-.189-.49-.586.312-.308.768-.469 1.271-.586-.473-.211-1.059-.308-1.564-.488.473-.471 1.781-.107 2.05-.781-.555-.583-2.171-.105-2.928-.488 2.599-.308 5.349-.125 8.104-.098-.524.613-2.354-.076-2.832.586.191.685 1.403.355 1.954.682zm-2.735 4.785c1.776 0 3.677-.279 4.882.391-.989.507-2.749.247-3.808.683-.02.509.713.262.781.684-1.357.108-3.39.251-4.59-.097.247-.208.71-.2.877-.489-.968-.497-2.506-.423-3.808-.586-.026-.318.116-.469.392-.488 1.534-.177 3.466-.098 5.274-.098zm3.345-27.447v17.094l-.024.002h-1.699V14.528h1.723zm-2.847 0v17.096h-1.853V14.528h1.853zm-2.973 0v17.096h-.065c-.536-.049-1.278.108-1.659-.098h-.001V14.528h1.725zm-2.846 0V31.62l-.051.004c-.595-.052-1.403.109-1.846-.095V14.528h1.897zm-5.029 26.274c-.058-.317.065-.454.097-.684.357-.032.542.109.781.196-.054.402-.363.547-.878.488zm-1.269-1.073c-.718-.383-1.536-1.202-2.539-1.172-.598.018-.903.479-1.564.488-.261-.812.544-1.568.488-2.246-.052-.626-.652-1.252-1.269-1.27-.852-.022-.794.84-1.758.88-.31-.417-.478-1.487-.097-2.051.331-.494 1.302-.439 1.562-1.075.532-1.3-.331-2.415-2.05-2.539.354-1.754 2.734-1.028 2.734-2.539 0-.558-.934-.895-.977-1.659-.095-1.643 2.935-1.567 2.244-3.809.222-.357.88-.585 1.075-1.171.149-.447.14-1.14-.099-1.563-.751.583-1.03 1.639-1.854 2.149.082.243.127.523.097.878-1.013 1.116-2.668 1.566-2.635 3.81.006.452.075.848.292 1.269-1.084.582-2.874 4.149.099 4.003.31.088-.286.563-.488.781-.604.65-1.625 1.744-1.271 3.125.271 1.05 1.818 1.946 3.027.878-.503 1.408.226 3.807 1.564 3.809.609 0 1.033-.762 1.562-.781 1.196-.045 1.93 1.955 3.515 1.757-2.433 1.14-5.979-.185-7.519-1.367-2.233-1.715-3.803-5.048-3.515-9.081.237-3.316 1.856-5.951 3.32-8.397.703-1.177 1.411-2.476 2.149-3.711.977-1.635 2.594-3.866 1.465-5.957-.942.589-2.211.798-3.027 0-1.506-1.474-.385-3.672 2.147-3.417.499.05 1.27.398 1.564.585 1.418.904 2.44 3.109 2.44 5.37 0 5.699-5.008 10.118-4.98 15.819.026 4.677 2.607 7.145 7.325 6.934-.131.163-.437.151-.587.292.065.424.792.187.781.684-.973.514-2.425-.579-3.221.294zm3.124-3.223c-1.285.576-3.356.126-4.296-.781-1.16-1.117-1.611-3.224-1.465-5.273.402-5.613 5.271-9.006 4.785-15.624l-.08-.301h1.213v17.091l-.06.005c-2.601-.582-2.326 2.336-.878 2.832.835.075 1.56.262 2.244.488.06.519-.88 1.302-1.463 1.563zm17.771 13.476c-.356.05-.779.054-1.17.097-.724.078-1.541.116-2.053.391.387.625 1.928.093 2.443.586-5.762.228-11.947.032-17.869.097.435-.572 1.863-.152 2.439-.585-.361-.56-1.25-.313-1.953-.39-.699-.077-1.429-.301-2.05-.293-.166.036-.183-.076-.196-.195 6.901-.163 14.487-.163 21.385 0-.151.304-.644.244-.976.292zm-.78-2.441c-1.416.343-3.353.164-4.885.39.035.584.965.276 1.271.586-1.55.347-3.404.196-5.272.196-1.801 0-3.671.075-5.273-.098.092-.493 1.102-.071 1.172-.585-.491-.375-1.276-.166-1.954-.196-1.02-.045-2.097-.143-2.928-.292-.02-.083.037-.092.097-.098.018-.079.097-.098.097-.196.08-.019.097-.097.196-.097 5.043.021 10.509-.029 15.72 0 .529.001 1.459-.256 1.759.39zm-2.343-12.499c.532-.515 1.519-.299 2.246-.585 1.6-.631 1.85-3.214-.879-2.93l-.035.003V14.528h1.207l-.002.008c-.945 6.613 4.78 10.447 4.785 16.6.004 1.372-.279 3.115-1.27 4.296-1.345 1.611-5.064 1.934-6.052-.39zm2.537 5.175c.311.047.346-.176.686-.099.076.217.205.381.197.684-.508.02-.978 0-.883-.585zm11.523-7.811c-.064 2.71-.994 5.056-2.539 6.834-1.674 1.927-5.082 3.585-8.494 2.539.504-.316.811-.275 1.27-.488.736-.341 1.365-1.366 2.147-1.367.572-.002.921.73 1.463.781 1.265.117 2.198-1.877 1.761-3.613 0-.418.455.12.584.195 1.166.503 2.28-.528 2.443-1.367.314-1.634-1.479-3.278-1.953-3.808.779.095 1.23-.136 1.657-.391.603-1.582-.629-2.748-1.364-3.613.198-.656.268-1.38.193-1.953-.197-1.607-1.656-2.121-2.538-3.027-.062-.215-.245-.728.099-.781-.705-.695-1.17-1.632-1.854-2.345-.523.951-.034 2.48.973 2.539-.822 2.583 2.268 2.328 2.25 3.907-.009.618-1.027.934-1.074 1.66-.104 1.582 2.375.936 2.731 2.44-.422.47-1.317.357-1.756.879-.409.481-.513 1.377-.198 1.953.268.482.753.501 1.368.782.356.631.532 1.695 0 2.246-.864-.085-.907-.873-1.66-.88-.59-.004-1.162.516-1.271.977-.192.828.705 1.717.393 2.539-.561.023-.855-.442-1.368-.488-1.021-.091-1.963.646-2.539 1.172-.95-.818-2.323.163-3.416-.293-.038-.492.705-.205.782-.586-.076-.173-.23-.266-.458-.287 4.849.202 7.478-3.006 7.192-7.622-.314-5.152-4.51-9.396-4.881-14.549-.162-2.267.551-4.359 1.658-5.468.523-.523 1.733-1.289 3.028-1.171.757.067 1.717.497 1.953 1.074.887 2.147-1.983 3.823-3.417 2.343-.844.833-.653 1.997-.197 3.223.938 2.513 2.768 4.649 4.199 7.127 1.34 2.314 2.918 5.365 2.833 8.887z"></path>
    <path id="SvgjsPath1561" fill="#FFC627" d="M94.314 38.459c-.131.163-.437.151-.587.292.065.424.792.187.781.684-.973.514-2.425-.579-3.221.293-.718-.383-1.536-1.202-2.539-1.172-.598.018-.903.479-1.564.488-.261-.812.544-1.568.488-2.246-.052-.626-.652-1.252-1.269-1.27-.852-.022-.794.84-1.758.88-.31-.417-.478-1.487-.097-2.051.331-.494 1.302-.439 1.562-1.075.532-1.3-.331-2.415-2.05-2.539.354-1.754 2.734-1.028 2.734-2.539 0-.558-.934-.895-.977-1.659-.095-1.643 2.935-1.567 2.244-3.809.222-.357.88-.585 1.075-1.171.149-.447.14-1.14-.099-1.563-.751.583-1.03 1.639-1.854 2.149.082.243.127.523.097.878-1.013 1.116-2.668 1.566-2.635 3.81.006.452.075.848.292 1.269-1.084.582-2.874 4.149.099 4.003.31.088-.286.563-.488.781-.604.65-1.625 1.744-1.271 3.125.271 1.05 1.818 1.946 3.027.878-.503 1.408.226 3.807 1.564 3.809.609 0 1.033-.762 1.562-.781 1.196-.045 1.93 1.955 3.515 1.757-2.433 1.14-5.979-.185-7.519-1.367-2.233-1.715-3.803-5.048-3.515-9.081.237-3.316 1.856-5.951 3.32-8.397.703-1.177 1.411-2.476 2.149-3.711.977-1.635 2.594-3.866 1.465-5.957-.942.589-2.211.798-3.027 0-1.506-1.474-.385-3.672 2.147-3.417.499.05 1.27.398 1.564.585 1.418.904 2.44 3.109 2.44 5.37 0 5.699-5.008 10.118-4.98 15.819.026 4.679 2.607 7.146 7.325 6.935zm25.388-27.633c-.236-.577-1.196-1.007-1.953-1.074-1.295-.118-2.505.648-3.028 1.171-1.107 1.109-1.82 3.201-1.658 5.468.371 5.153 4.565 9.397 4.881 14.549.287 4.657-2.394 7.882-7.323 7.616.301-.005.499.089.589.293-.077.381-.82.094-.782.586 1.093.456 2.466-.524 3.416.293.576-.526 1.519-1.263 2.539-1.172.513.046.81.512 1.368.488.313-.821-.585-1.71-.393-2.539.107-.461.681-.981 1.271-.977.753.007.796.794 1.66.88.532-.551.356-1.615 0-2.246-.615-.281-1.103-.3-1.368-.782-.314-.576-.211-1.471.198-1.953.438-.522 1.334-.409 1.756-.879-.356-1.504-2.836-.859-2.731-2.44.047-.726 1.065-1.042 1.074-1.66.018-1.579-3.072-1.323-2.25-3.907-1.007-.058-1.496-1.588-.973-2.539.686.712 1.148 1.65 1.854 2.345-.344.053-.158.566-.099.781.882.906 2.341 1.42 2.538 3.027.072.572.005 1.296-.193 1.953.735.865 1.967 2.031 1.364 3.613-.427.255-.878.486-1.657.391.475.53 2.268 2.174 1.953 3.808-.163.838-1.277 1.87-2.443 1.367-.129-.075-.584-.613-.584-.195.438 1.735-.496 3.729-1.761 3.613-.542-.05-.891-.783-1.463-.781-.782.001-1.411 1.025-2.147 1.367-.459.213-.766.172-1.27.488 3.412 1.046 6.82-.612 8.494-2.539 1.545-1.778 2.475-4.124 2.539-6.834.085-3.522-1.493-6.572-2.832-8.887-1.434-2.479-3.262-4.615-4.199-7.127-.456-1.226-.646-2.39.197-3.223 1.433 1.479 4.303-.196 3.416-2.343zm-12.693 21.775h-7.618c-1.351 0-2.76-.18-3.81 0-.342.059-.846.11-.975.586 1.398.856 3.662.781 5.858.878 1.538.068 3.597-.004 4.884-.097 1.928-.14 4.346.137 5.077-.977-.924-.553-2.168-.39-3.416-.39zm-8.594 3.417c.757.383 2.373-.095 2.928.488-.269.673-1.577.31-2.05.781.505.181 1.091.277 1.564.488-.503.117-.959.278-1.271.586-.039.397.415.301.49.586-.215.177-.622.16-.587.585.667-.113.929.179 1.269.391-.404.083-.86.114-.977.488.236.22.706.206 1.076.292-.065.356.064.52.193.684h2.835c.225-.098.117-.532.293-.684.332-.154.965-.011 1.071-.391-.253-.237-.705-.269-.978-.488.414-.076.561-.42 1.176-.293.271-.343-.438-.357-.49-.684.134-.158.465-.121.393-.488-.199-.42-.904-.335-1.172-.683.547-.103 1.102-.2 1.463-.488-.551-.327-1.763.003-1.953-.684.479-.662 2.308.027 2.832-.586-2.756-.025-5.507-.208-8.105.1zm-5.859 4.784c.515.059.824-.086.878-.488-.239-.086-.424-.228-.781-.196-.032.231-.154.367-.097.684zm19.04-.585c-.095.584.375.605.883.585.008-.302-.121-.466-.197-.684-.343-.077-.378.147-.686.099zm-8.69 1.758c-1.809 0-3.741-.079-5.272.097-.275.019-.417.17-.392.488 1.302.163 2.84.089 3.808.586-.167.289-.63.28-.877.489 1.2.349 3.231.205 4.591.097-.068-.422-.802-.174-.783-.684 1.06-.437 2.818-.176 3.809-.683-1.207-.67-3.108-.39-4.884-.39zm-1.367 2.538c-1.964 0-3.955-.227-5.37.391.882.452 2.513.157 3.417.586-.508.761-2.446.092-3.221.586 3.057.208 7.052.345 10.349.195.623-.028 1.315-.018 1.858-.293-.977-.262-2.663.188-3.223-.488.945-.451 2.711-.085 3.514-.684-2.026-.47-4.732-.293-7.324-.293zm8.104 2.637c-5.211-.029-10.677.021-15.72 0-.099 0-.116.079-.196.097 0 .098-.079.117-.097.196-.06.005-.116.015-.097.098.831.15 1.908.248 2.928.292.678.03 1.463-.179 1.954.196-.071.514-1.08.092-1.172.585 1.603.173 3.472.098 5.273.098 1.868 0 3.724.151 5.272-.196-.306-.31-1.233-.002-1.271-.586 1.532-.227 3.469-.047 4.885-.39-.3-.645-1.23-.388-1.759-.39zm-17.87 2.538c.013.119.03.231.196.195.622-.008 1.351.216 2.05.293.703.077 1.592-.169 1.953.39-.576.433-2.005.013-2.439.585 5.922-.064 12.107.131 17.869-.097-.518-.493-2.057.039-2.443-.586.512-.274 1.329-.313 2.053-.391.391-.043.813-.047 1.17-.097.332-.048.825.012.978-.293-6.898-.162-14.485-.162-21.387.001z"></path>
  </g>
</svg><style>@media (prefers-color-scheme: light) { :root { filter: none; } }
@media (prefers-color-scheme: dark) { :root { filter: none; } }
</style></svg>